#N canvas 34 59 1356 1052 10;
#X obj 83 19 inlet;
#X obj 83 45 bng 16 250 50 0 empty empty empty 0 -8 0 10 #fcfcfc #000000 #000000;
#X floatatom 108 107 5 0 0 0 - - - 0;
#X obj 150 82 + 1;
#X obj 108 83 f;
#X msg 108 61 0;
#X floatatom 150 107 5 0 0 0 - - - 0;
#X obj 108 132 outlet;
#X obj 15 70 sel 16;
#X text 119 18 inc bang;
#X text 9 41 max;
#X obj 48 45 f \$1;
#X obj 24 19 loadbang;
#X connect 0 0 1 0;
#X connect 1 0 4 0;
#X connect 2 0 7 0;
#X connect 3 0 6 0;
#X connect 3 0 4 1;
#X connect 4 0 2 0;
#X connect 4 0 3 0;
#X connect 4 0 8 0;
#X connect 5 0 4 0;
#X connect 8 0 5 0;
#X connect 11 0 8 1;
#X connect 12 0 11 0;
