#N canvas 34 59 1328 1029 10;
#X obj 73 110 serialosc;
#X text 276 228 x \, y \, state;
#X msg 276 252 \$2 \$1 \$3;
#X text 344 250 y \, x \, state;
#X obj 276 284 route 6 7;
#N canvas 272 344 609 869 toggles 0;
#X msg 37 117 \$3 \$2 \$1;
#X text 102 116 state \, x \, y;
#X obj 37 146 route 1;
#X text 92 145 if a key-down pass x \, y out left;
#X obj 70 253 * 16;
#X obj 37 228 unpack;
#X text 102 252 multiply y value by 16;
#X obj 37 279 +;
#X text 67 278 add x value to y*16;
#X floatatom 37 304 5 0 0 0 - - - 0;
#X text 78 303 this is our 'index' for the current key;
#X obj 37 763 tabwrite grid;
#X obj 37 426 tabread grid;
#X obj 37 389 t f f;
#X text 120 425 look up the stored value at the pressed index;
#X text 82 389 first set the index to write to \, and prepare to draw an LED;
#X floatatom 37 457 5 0 0 0 - - - 0;
#X text 84 456 the stored state;
#X obj 37 485 == 0;
#X text 72 483 invert the stored state;
#X text 126 764 and write the new state to the table;
#X obj 284 577 / 16;
#X obj 284 602 int;
#X obj 246 623 % 16;
#X obj 227 657 pack f f f;
#X msg 227 683 \$2 \$3 \$1;
#X text 397 96 this is the table itself;
#X text 291 549 convert our index back into x \, y coordinates;
#X text 299 683 the send the value to the grid;
#X obj 37 36 inlet;
#X obj 227 708 outlet;
#X text 321 575 we divide by 16 to determine the row;
#X text 292 624 and use the remainder to determine the column;
#X obj 246 551 t f f;
#X text 274 707 x \, y \, state to serialosc;
#X text 78 36 y \, x \, state from the top 6 rows;
#X obj 459 73 table grid 128;
#X text 20 828 http://monome.org;
#X text 20 811 grid studies 3-1-1;
#X connect 0 0 2 0;
#X connect 2 0 5 0;
#X connect 4 0 7 1;
#X connect 5 0 7 0;
#X connect 5 1 4 0;
#X connect 7 0 9 0;
#X connect 9 0 13 0;
#X connect 12 0 16 0;
#X connect 13 0 12 0;
#X connect 13 1 11 1;
#X connect 13 1 33 0;
#X connect 16 0 18 0;
#X connect 18 0 11 0;
#X connect 18 0 24 0;
#X connect 21 0 22 0;
#X connect 22 0 24 2;
#X connect 23 0 24 1;
#X connect 24 0 25 0;
#X connect 25 0 30 0;
#X connect 29 0 0 0;
#X connect 33 0 23 0;
#X connect 33 1 21 0;
#X restore 327 325 pd toggles;
#X msg 327 358 /monome/grid/led/set \$1 \$2 \$3;
#X obj 327 390 s osc-out;
#X obj 73 66 r osc-out;
#X text 399 324 toggle bank;
#X text 28 602 http://monome.org;
#X text 28 586 grid studies 3-1;
#X obj 72 143 route monome;
#X obj 72 164 route grid;
#X obj 72 185 route key;
#X connect 0 0 12 0;
#X connect 2 0 4 0;
#X connect 4 2 5 0;
#X connect 5 0 6 0;
#X connect 6 0 7 0;
#X connect 8 0 0 0;
#X connect 12 0 13 0;
#X connect 13 0 14 0;
#X connect 14 0 2 0;
