#N canvas 34 78 1227 794 10;
#X obj 465 238 outlet OSC-from-serialosc;
#X obj 439 499 inlet OSC-to-serialosc;
#X obj 125 58 loadbang;
#X msg 468 74 \$0;
#X obj 467 104 + 12289;
#X obj 672 289 spigot 0;
#X obj 762 207 t b;
#X obj 672 314 unpack s s f;
#X obj 685 416 float;
#X obj 104 306 float;
#X obj 165 305 float;
#X msg 241 460 connect localhost 12002;
#X msg 796 524 connect localhost \$1;
#X obj 741 367 t b b b f b;
#X msg 815 488 disconnect;
#X obj 125 90 t b b b b 1;
#X obj 142 241 t b b b b, f 11;
#X msg 205 270 1, f 2;
#X obj 741 343 t f b;
#X msg 771 293 0;
#X obj 534 573 list prepend send;
#X obj 534 595 list trim;
#X obj 741 451 outlet bang-on-connect;
#X msg 467 132 listen \$1;
#X obj 467 156 netreceive -u -b;
#X obj 466 204 list trim;
#X obj 534 618 netsend -u -b;
#X obj 104 529 netsend -u -b;
#X obj 104 460 list prepend send;
#X obj 104 482 list trim;
#N canvas 808 37 364 232 packOSC 0;
#X obj 50 169 oscformat;
#X msg 50 131 set \$1;
#X obj 23 53 list split 1;
#X obj 50 197 outlet;
#X obj 23 19 inlet;
#X text 123 55 assume first element is the address;
#X text 143 132 everything else is the message;
#X text 105 19 an mrpeach/packOSC wrapper for oscformat;
#X obj 102 131 list;
#X obj 23 86 t b a;
#X connect 0 0 3 0;
#X connect 1 0 0 0;
#X connect 2 0 9 0;
#X connect 2 1 8 1;
#X connect 4 0 2 0;
#X connect 8 0 0 0;
#X connect 9 0 8 0;
#X connect 9 1 1 0;
#X restore 104 412 pd packOSC;
#N canvas 808 37 364 232 packOSC 0;
#X obj 50 169 oscformat;
#X msg 50 131 set \$1;
#X obj 23 53 list split 1;
#X obj 50 197 outlet;
#X obj 23 19 inlet;
#X text 123 55 assume first element is the address;
#X text 143 132 everything else is the message;
#X text 105 19 an mrpeach/packOSC wrapper for oscformat;
#X obj 102 131 list;
#X obj 23 86 t b a;
#X connect 0 0 3 0;
#X connect 1 0 0 0;
#X connect 2 0 9 0;
#X connect 2 1 8 1;
#X connect 4 0 2 0;
#X connect 8 0 0 0;
#X connect 9 0 8 0;
#X connect 9 1 1 0;
#X restore 534 549 pd packOSC;
#X msg 181 498 disconnect;
#X msg 165 333 /serialosc/list localhost \$1;
#X msg 104 370 /serialosc/notify localhost \$1;
#X msg 615 499 /sys/port \$1;
#X obj 672 178 route device remove add;
#X obj 672 154 route serialosc;
#X msg 533 416 /sys/prefix /monome;
#X obj 465 180 oscparse;
#X obj 280 620 route monome;
#X obj 280 646 route grid;
#X obj 280 671 route key;
#X msg 280 722 15 0 0;
#X msg 280 699 set \$1 \$2 \$3;
#X text 383 657 <<<<< Example;
#X connect 1 0 31 0;
#X connect 2 0 15 0;
#X connect 3 0 4 0;
#X connect 4 0 23 0;
#X connect 4 0 9 1;
#X connect 4 0 10 1;
#X connect 4 0 8 1;
#X connect 5 0 7 0;
#X connect 6 0 16 0;
#X connect 7 2 18 0;
#X connect 8 0 35 0;
#X connect 9 0 34 0;
#X connect 10 0 33 0;
#X connect 11 0 27 0;
#X connect 12 0 26 0;
#X connect 13 0 22 0;
#X connect 13 1 38 0;
#X connect 13 2 8 0;
#X connect 13 3 12 0;
#X connect 13 4 14 0;
#X connect 14 0 26 0;
#X connect 15 1 16 0;
#X connect 15 2 3 0;
#X connect 15 3 11 0;
#X connect 16 1 9 0;
#X connect 16 2 10 0;
#X connect 16 3 17 0;
#X connect 17 0 5 1;
#X connect 18 0 13 0;
#X connect 18 1 19 0;
#X connect 19 0 5 1;
#X connect 20 0 21 0;
#X connect 21 0 26 0;
#X connect 23 0 24 0;
#X connect 24 0 39 0;
#X connect 25 0 37 0;
#X connect 25 0 0 0;
#X connect 25 0 40 0;
#X connect 28 0 29 0;
#X connect 29 0 27 0;
#X connect 30 0 28 0;
#X connect 31 0 20 0;
#X connect 32 0 27 0;
#X connect 33 0 30 0;
#X connect 34 0 30 0;
#X connect 35 0 31 0;
#X connect 36 0 5 0;
#X connect 36 1 6 0;
#X connect 36 2 6 0;
#X connect 37 0 36 0;
#X connect 38 0 31 0;
#X connect 39 0 25 0;
#X connect 40 0 41 0;
#X connect 41 0 42 0;
#X connect 42 0 44 0;
#X connect 44 0 43 0;
